<svg preserveAspectRatio="xMidYMid meet" data-bbox="0 0 885.15 297.14" viewBox="0 0 885.17 297.14" xmlns="http://www.w3.org/2000/svg" data-type="ugc" role="presentation" aria-hidden="true" aria-label="">
    <g>
        <g>
            <path d="M30.18 0H820a65.15 65.15 0 0 1 65.15 65.15V267A30.18 30.18 0 0 1 855 297.14H30.18A30.18 30.18 0 0 1 0 267V30.18A30.18 30.18 0 0 1 30.18 0" fill="#263776"></path>
            <path fill="#ffffff" d="M874.29 84.25a5.72 5.72 0 1 1-11.44 0 5.72 5.72 0 0 1 11.44 0"></path>
            <path fill="#ffffff" d="M804.72 17.21a5.72 5.72 0 1 1-11.44 0 5.72 5.72 0 0 1 11.44 0"></path>
            <path fill="#ffffff" d="M787.73 17.21a5.72 5.72 0 1 1-11.44 0 5.72 5.72 0 0 1 11.44 0"></path>
            <path fill="#ffffff" d="M874.29 100.56a5.72 5.72 0 1 1-11.44 0 5.72 5.72 0 0 1 11.44 0"></path>
            <path d="M814 19s45.27 2 53.39 46.14" fill="none" stroke="#ffffff" stroke-linecap="round" stroke-miterlimit="10" stroke-width="9"></path>
            <path fill="none" stroke="#ffffff" stroke-linecap="round" stroke-miterlimit="10" stroke-width="9" d="M764.21 17.21H325.37"></path>
            <path d="m34 138.41 18.4-13.68c4.43 8.23 10.56 12 16.68 12 9.67 0 14.9-4.94 14.9-20.91V38.16H111V118c0 23-12 42-38.4 42-18.28.07-30.32-7.08-38.6-21.59" fill="#ffffff"></path>
            <path d="M130.24 38.16h29.52l19.43 53.19c2.39 7.06 4.49 14.73 6.89 22.1h.73c2.4-7.37 4.43-15 6.83-22.1l18.81-53.19H242v119.7h-24.66v-43.92c0-11.67 2.18-29.09 3.46-40.67h-.74l-9.82 28.32-16.92 45.86h-15l-17-45.86-9.55-28.32h-.74c1.28 11.58 3.46 29 3.46 40.67v43.92h-24.25Z" fill="#ffffff"></path>
            <path d="M299.09 160.07c-26.45 0-38.4-19-38.4-42V38.16h27.06v77.63c0 16 5.23 20.91 14.9 20.91 6.12 0 12.25-3.74 16.68-12l18.4 13.68c-8.3 14.54-20.34 21.69-38.64 21.69" fill="#ffffff"></path>
            <path d="M365.81 86.14h22.78c14.59 0 26.36 5.22 26.36 21.33C415 123.06 403.05 130 389 130h-8.2v22.5h-15Zm22.3 31.91c8.25 0 12.15-3.67 12.15-10.58s-4.44-9.42-12.55-9.42h-6.91v20Z" fill="#ffffff"></path>
            <path d="M425.2 102h12.2l1.08 8.82h.37c3.68-6.74 9.19-10 14.34-10a14.1 14.1 0 0 1 6 1l-2.49 12.91a20.7 20.7 0 0 0-5.44-.81c-3.81 0-8.43 2.45-11.12 9.33v29.26h-15Z" fill="#ffffff"></path>
            <path d="M461.74 127.23c0-16.78 11.82-26.47 24.59-26.47s24.59 9.69 24.59 26.47-11.82 26.45-24.59 26.45-24.59-9.68-24.59-26.45m33.85 0c0-8.73-3.07-14.4-9.26-14.4s-9.26 5.67-9.26 14.4 3.07 14.38 9.26 14.38 9.26-5.61 9.26-14.38" fill="#ffffff"></path>
            <path d="m516.5 102.55 7.56-.57h23.2v11.73H516.5Zm6.72-3.19c0-10.65 4.94-19.41 18.57-19.41a29.2 29.2 0 0 1 10.07 1.8l-2.7 11a14.5 14.5 0 0 0-5.23-1.09c-3.65 0-5.75 2-5.75 7.24v53.53h-15Z" fill="#ffffff"></path>
            <path d="M554.16 86.78c0-4.59 3.64-7.82 8.66-7.82s8.66 3.23 8.66 7.82-3.64 7.81-8.66 7.81-8.66-3.26-8.66-7.81m1.17 15.2h14.95v50.48h-14.95Z" fill="#ffffff"></path>
            <path d="M583.4 136.77v-55.6h15v56.21c0 3.21 1.48 4.23 2.71 4.23a6.3 6.3 0 0 0 1.83-.21l1.78 11a19.3 19.3 0 0 1-7.51 1.25c-10.3.03-13.81-6.65-13.81-16.88" fill="#ffffff"></path>
            <path d="M609.57 127.23c0-16.37 11.68-26.47 23.81-26.47 14.38 0 21.5 10.45 21.5 24.22a34.4 34.4 0 0 1-.62 6.61h-30.2c1.34 7.33 6.35 10.69 13.09 10.69a21 21 0 0 0 10.92-3.28l4.94 9a32.84 32.84 0 0 1-17.91 5.69c-14.39-.01-25.53-9.69-25.53-26.46m32.53-5.53c0-5.55-2.41-9.54-8.39-9.54-4.72 0-8.8 3.17-9.82 9.54Z" fill="#ffffff"></path>
            <path d="M686.79 86.14h15v66.32h-15Z" fill="#ffffff"></path>
            <path d="M716.17 102h12.2l1.08 6.39h.37c4.25-4.08 9.34-7.61 16.22-7.61 11 0 15.66 7.74 15.66 20.36v31.34h-15V123c0-7.26-2-9.53-6.27-9.53-3.75 0-6.05 1.74-9.34 4.9v34.06h-15Z" fill="#ffffff"></path>
            <path d="M771.44 127.23c0-16.78 12.35-26.47 26.3-26.47a21.92 21.92 0 0 1 14.74 5.43l-7.06 9.62c-2.42-2-4.44-3-6.85-3-7.19 0-11.81 5.67-11.81 14.4s4.81 14.38 11.31 14.38c3.32 0 6.49-1.64 9.11-3.73l5.85 9.79a25.22 25.22 0 0 1-16.64 6c-14.09.03-24.95-9.65-24.95-26.42" fill="#ffffff"></path>
            <path d="M33.8 215.74c0-15.43 10.19-24.37 21.94-24.37a19.63 19.63 0 0 1 14 6l-5.54 6.74c-2.33-2.17-4.84-3.7-8.21-3.7-6.37 0-11.41 5.62-11.41 14.94 0 9.56 4.45 15.11 11.25 15.11a12.26 12.26 0 0 0 9.09-4.34l5.54 6.59a19.15 19.15 0 0 1-15 6.83c-11.82.03-21.66-8.15-21.66-23.8" fill="#ffffff"></path>
            <path d="M75.23 215.27c0-15.19 8.58-23.9 21.11-23.9s21.12 8.77 21.12 23.9-8.58 24.3-21.12 24.3-21.11-9.12-21.11-24.3m31.46 0c0-9.32-4-14.83-10.35-14.83S86 206 86 215.27s4 15.22 10.34 15.22 10.35-5.9 10.35-15.22" fill="#ffffff"></path>
            <path d="M128.78 192.23h11.46l7.55 20.65c.93 2.74 1.74 5.72 2.67 8.58h.29c.93-2.86 1.72-5.84 2.65-8.58l7.31-20.65h11.46v46.48h-9.57v-17.06c0-4.53.85-11.29 1.34-15.79h-.28l-3.81 11-6.58 17.81h-5.83l-6.58-17.81-3.71-11h-.29c.5 4.5 1.35 11.26 1.35 15.79v17.06h-9.43Z" fill="#ffffff"></path>
            <path d="M185.69 192.23h16c10.23 0 18.48 3.65 18.48 15 0 10.93-8.34 15.76-18.19 15.76h-5.78v15.77h-10.51Zm15.64 22.36c5.77 0 8.51-2.57 8.51-7.41s-3.11-6.61-8.8-6.61h-4.84v14Z" fill="#ffffff"></path>
            <path d="M228.57 215.27c0-15.19 8.57-23.9 21.11-23.9s21.11 8.77 21.11 23.9-8.58 24.3-21.11 24.3-21.11-9.12-21.11-24.3m31.45 0c0-9.32-4-14.83-10.34-14.83s-10.34 5.51-10.34 14.83 4 15.22 10.34 15.22 10.32-5.9 10.32-15.22Z" fill="#ffffff"></path>
            <path d="m279.11 232.84 6-7.21c3.31 2.88 7.6 4.86 11.42 4.86 4.39 0 6.54-1.73 6.54-4.48 0-2.93-2.65-3.87-6.71-5.54l-6-2.57c-4.81-2-9.38-5.92-9.38-12.68 0-7.7 6.88-13.85 16.56-13.85a21.5 21.5 0 0 1 15 6.09l-5.3 6.63c-3.07-2.35-6-3.65-9.65-3.65s-5.93 1.51-5.93 4.17c0 2.85 3 3.89 7.1 5.5l5.92 2.4c5.67 2.3 9.22 6.08 9.22 12.65 0 7.72-6.44 14.41-17.51 14.41a25.56 25.56 0 0 1-17.28-6.73" fill="#ffffff"></path>
            <path d="M324.33 192.23h10.51v46.48h-10.51Z" fill="#ffffff"></path>
            <path d="M357.46 201h-12.79v-8.81h36.1V201H368v37.67h-10.54Z" fill="#ffffff"></path>
            <path d="M390.59 192.23h29.12V201H401.1v9.33H417v8.82h-15.9v10.75h19.33v8.81h-29.84Z" fill="#ffffff"></path>
            <path d="M449.07 192.23h11.46l7.55 20.65c.93 2.74 1.74 5.72 2.67 8.58h.25c.93-2.86 1.72-5.84 2.65-8.58l7.35-20.65h11.46v46.48h-9.57v-17.06c0-4.53.85-11.29 1.34-15.79H484l-3.81 11-6.58 17.81h-5.83l-6.58-17.81-3.71-11h-.29c.5 4.5 1.35 11.26 1.35 15.79v17.06h-9.43Z" fill="#ffffff"></path>
            <path d="M514.63 192.23h12.58l14.59 46.48h-11.12l-6.08-23.54c-1.29-4.65-2.53-10.15-3.77-15h-.29c-1.12 4.91-2.37 10.35-3.66 15l-6.1 23.54H500Zm-5 27.24H532v8.17h-22.34Z" fill="#ffffff"></path>
            <path d="M546.5 215.74c0-15.43 10.2-24.37 22-24.37a19.65 19.65 0 0 1 14 6l-5.54 6.74c-2.34-2.17-4.85-3.7-8.21-3.7-6.37 0-11.41 5.62-11.41 14.94 0 9.56 4.45 15.11 11.24 15.11a12.3 12.3 0 0 0 9.1-4.34l5.54 6.59a19.15 19.15 0 0 1-15 6.83c-11.87.03-21.72-8.15-21.72-23.8" fill="#ffffff"></path>
            <path d="M592.77 192.23h10.51v17.91h16.05v-17.91h10.51v46.48h-10.51V219.3h-16.05v19.41h-10.51Z" fill="#ffffff"></path>
            <path d="M643.41 192.23h10.51v46.48h-10.51Z" fill="#ffffff"></path>
            <path d="M667.45 192.23h10.76l12.13 23.12 4.6 10.21h.29c-.5-4.92-1.35-11.43-1.35-16.91v-16.42h10v46.48h-10.75L681 215.53l-4.6-10.15h-.28c.49 5.13 1.34 11.35 1.34 16.83v16.5h-10Z" fill="#ffffff"></path>
            <path d="M717.44 192.23H728v46.48h-10.56Z" fill="#ffffff"></path>
            <path d="M741.47 192.23h10.77l12.13 23.12 4.6 10.21h.28c-.49-4.92-1.34-11.43-1.34-16.91v-16.42h10v46.48h-10.75L755 215.53l-4.6-10.15h-.29c.5 5.13 1.35 11.35 1.35 16.83v16.5h-10Z" fill="#ffffff"></path>
            <path d="M789.27 215.74c0-15.43 10.24-24.37 22.65-24.37a20.17 20.17 0 0 1 14.67 6l-5.54 6.74a12 12 0 0 0-8.77-3.7c-7.16 0-12.24 5.62-12.24 14.94 0 9.56 4.33 15.11 13.08 15.11a8.35 8.35 0 0 0 4.92-1.38v-8h-7.7v-8.57h17v21.43c-3.2 3.13-8.85 5.63-15.34 5.63-12.77 0-22.73-8.18-22.73-23.83" fill="#ffffff"></path>
            <path fill="none" stroke="#ffffff" stroke-linecap="round" stroke-miterlimit="10" stroke-width="8" d="M204.22 270.06h-71.33"></path>
            <path fill="none" stroke="#ffffff" stroke-linecap="round" stroke-miterlimit="10" stroke-width="8" d="M294.3 270.06h-71.34"></path>
            <path fill="none" stroke="#ffffff" stroke-linecap="round" stroke-miterlimit="10" stroke-width="8" d="M114.15 270.06H42.81"></path>
            <path fill="#ffffff" d="M318.31 269.93a5.72 5.72 0 1 1-11.44 0 5.72 5.72 0 0 1 11.44 0"></path>
            <path fill="#ffffff" d="M335.07 269.93a5.72 5.72 0 1 1-11.44 0 5.72 5.72 0 0 1 11.44 0"></path>
            <path fill="#ffffff" d="M351.84 269.93a5.72 5.72 0 1 1-11.44 0 5.72 5.72 0 0 1 11.44 0"></path>
            <path fill="#ffffff" d="M368.61 269.93a5.72 5.72 0 1 1-11.44 0 5.72 5.72 0 0 1 11.44 0"></path>
        </g>
    </g>
</svg>