<?xml version="1.0" standalone="no"?>
<!DOCTYPE svg PUBLIC "-//W3C//DTD SVG 20010904//EN"
 "http://www.w3.org/TR/2001/REC-SVG-20010904/DTD/svg10.dtd">
<svg version="1.0" xmlns="http://www.w3.org/2000/svg"
 width="2048.000000pt" height="2048.000000pt" viewBox="0 0 2048.000000 2048.000000"
 preserveAspectRatio="xMidYMid meet">

<g transform="translate(0.000000,2048.000000) scale(0.100000,-0.100000)"
fill="#000000" stroke="none">
<path d="M0 10240 l0 -10240 10240 0 10240 0 0 10240 0 10240 -10240 0 -10240
0 0 -10240z m15240 4684 c183 -14 424 -45 570 -74 230 -46 305 -65 470 -120
544 -180 934 -445 1202 -814 21 -28 46 -62 56 -76 71 -94 153 -272 211 -452
152 -479 118 -1069 -94 -1653 -20 -55 -46 -127 -57 -160 -18 -51 -48 -110 -48
-94 0 2 18 56 41 119 73 205 138 432 160 560 33 189 41 247 48 350 40 569 -94
1037 -410 1428 -61 75 -179 196 -255 260 -152 129 -487 322 -659 380 -33 11
-91 32 -130 46 -77 29 -328 97 -445 120 -472 94 -988 115 -1580 66 -144 -12
-442 -47 -515 -60 -27 -5 -70 -12 -95 -15 -46 -6 -242 -42 -410 -75 -535 -106
-1279 -327 -1865 -553 -22 -8 -71 -27 -110 -42 -38 -15 -95 -37 -125 -50 -30
-13 -107 -44 -170 -70 -63 -26 -129 -53 -147 -61 -17 -8 -34 -14 -38 -14 -3 0
-39 -15 -78 -34 -40 -18 -102 -47 -140 -65 -37 -17 -125 -58 -195 -91 -187
-87 -724 -359 -824 -418 -47 -27 -96 -53 -109 -57 -12 -4 -83 -44 -158 -88
-75 -44 -210 -124 -301 -178 -265 -157 -366 -221 -591 -372 -83 -57 -117 -73
-190 -93 -89 -24 -150 -50 -201 -86 l-27 -19 -41 41 c-22 22 -45 40 -50 40 -6
0 -10 3 -10 8 1 8 128 96 285 197 55 36 120 79 145 95 90 62 147 99 225 148
157 97 316 192 392 233 43 23 124 68 181 101 57 33 144 80 195 105 51 25 138
72 194 105 56 32 104 58 107 58 3 0 124 58 268 129 283 139 458 220 608 283
89 38 142 61 215 93 39 18 247 103 305 125 542 209 949 343 1485 489 220 59
724 169 905 196 52 8 151 23 220 34 237 38 607 74 860 84 176 8 567 3 720 -9z
m-11478 -2177 c191 -45 311 -165 360 -359 16 -66 19 -100 15 -168 -16 -234
-151 -397 -379 -456 -35 -9 -69 -18 -77 -21 -9 -2 6 -18 40 -40 123 -83 192
-171 432 -555 l136 -218 -224 0 -224 0 -202 301 c-110 165 -225 326 -255 358
-73 79 -121 99 -263 107 l-111 7 0 -386 0 -387 -190 0 -190 0 0 921 0 920 533
-4 c442 -3 543 -6 599 -20z m1493 -462 c239 -50 443 -254 501 -500 23 -100 21
-278 -5 -376 -66 -253 -260 -444 -505 -496 -115 -24 -289 -14 -399 24 -174 61
-294 160 -366 303 -58 116 -76 206 -76 375 1 127 3 148 29 220 82 239 236 385
466 444 92 24 255 27 355 6z m3562 -8 c86 -25 145 -58 198 -112 87 -86 87 -90
96 -595 7 -459 9 -478 59 -595 l19 -45 -177 2 -177 3 -19 63 c-11 34 -24 62
-29 62 -5 0 -27 -15 -48 -34 -97 -82 -221 -126 -359 -126 -197 0 -333 76 -408
230 -23 49 -26 67 -27 160 0 95 3 111 29 167 33 72 99 139 174 177 61 31 147
55 342 96 80 17 172 38 205 48 l60 18 3 55 c5 104 -42 155 -159 171 -141 20
-239 -22 -284 -122 -21 -47 -12 -46 -195 -16 l-135 22 2 27 c3 40 48 133 93
193 62 82 168 141 293 164 78 14 382 5 444 -13z m1538 8 c161 -42 265 -151
294 -309 7 -38 11 -238 11 -553 l0 -493 -174 0 -174 0 -4 453 c-5 503 -8 525
-70 584 -50 46 -77 57 -149 57 -117 0 -215 -66 -256 -173 -15 -40 -17 -99 -21
-483 l-3 -438 -180 0 -179 0 0 670 0 670 165 0 165 0 0 -91 0 -91 68 63 c114
108 211 147 362 148 47 1 112 -6 145 -14z m-4020 -440 c66 -234 122 -425 125
-425 3 0 55 190 116 423 l109 422 175 0 174 0 105 -422 c58 -233 108 -423 111
-423 3 0 54 170 114 378 60 207 115 398 123 425 l14 47 176 0 c162 0 175 -1
171 -17 -3 -10 -99 -312 -213 -670 l-208 -653 -172 0 -172 0 -108 408 c-59
224 -110 413 -114 419 -4 7 -56 -176 -116 -407 l-109 -420 -175 2 -174 3 -209
664 c-114 366 -208 666 -208 668 0 2 78 3 173 3 l173 0 119 -425z m11158 -514
c-32 -72 -61 -131 -65 -131 -3 0 21 61 55 135 34 74 63 132 65 130 2 -2 -23
-62 -55 -134z m-11360 -534 c17 -18 41 -39 52 -44 18 -10 10 -21 -90 -128
-354 -376 -567 -628 -820 -969 l-20 -27 -166 3 -166 3 181 236 c158 207 297
374 470 569 27 30 148 158 269 283 l220 229 19 -61 c11 -36 31 -74 51 -94z
m-2371 -920 c191 -45 311 -165 360 -359 16 -66 19 -100 15 -168 -16 -234 -151
-397 -379 -456 -35 -9 -69 -18 -77 -21 -9 -2 6 -18 40 -40 123 -83 192 -171
432 -555 l136 -218 -224 0 -224 0 -202 301 c-110 165 -225 326 -255 358 -73
79 -121 99 -263 107 l-111 7 0 -386 0 -387 -190 0 -190 0 0 921 0 920 533 -4
c442 -3 543 -6 599 -20z m4050 -454 l3 -476 198 226 198 227 220 0 219 0 -222
-240 c-123 -132 -224 -244 -226 -249 -1 -4 101 -190 229 -412 127 -222 235
-412 240 -421 9 -17 -2 -18 -183 -18 l-193 1 -165 300 -165 299 -77 -82 -77
-83 -1 -217 0 -218 -180 0 -180 0 0 920 0 920 180 0 180 0 2 -477z m2868 212
l0 -235 120 0 120 0 0 -135 0 -135 -120 0 -120 0 0 -374 c0 -359 1 -374 20
-399 27 -35 66 -41 138 -23 33 9 64 16 69 16 13 0 38 -259 26 -271 -5 -5 -46
-18 -92 -30 -118 -30 -272 -24 -351 12 -72 34 -113 76 -142 147 -22 56 -23 65
-26 490 l-3 432 -80 0 -79 0 0 135 0 135 80 0 80 0 0 133 0 132 173 102 c94
56 175 103 180 103 4 0 7 -106 7 -235z m-5425 -220 c239 -50 443 -254 501
-500 23 -100 21 -278 -5 -376 -66 -253 -260 -444 -505 -496 -115 -24 -289 -14
-399 24 -174 61 -294 160 -366 303 -58 116 -76 206 -76 375 1 127 3 148 29
220 82 239 236 385 466 444 92 24 255 27 355 6z m1538 -1 c146 -34 237 -92
316 -204 52 -74 100 -186 85 -199 -10 -9 -333 -66 -338 -60 -2 2 -11 27 -20
56 -67 203 -376 199 -465 -7 -49 -115 -54 -319 -12 -478 18 -66 70 -132 131
-166 46 -26 65 -30 125 -30 129 0 203 59 242 194 8 30 17 57 19 58 5 6 328
-51 338 -59 11 -10 -28 -128 -68 -204 -41 -80 -145 -183 -219 -218 -110 -53
-205 -70 -352 -64 -97 4 -146 10 -195 27 -199 67 -349 241 -396 460 -22 101
-22 319 0 420 52 238 214 411 438 470 95 25 271 26 371 4z m2758 2 c161 -34
312 -151 382 -296 54 -110 78 -213 84 -362 l6 -128 -440 0 -440 0 9 -62 c22
-163 125 -262 273 -262 91 0 144 27 186 91 16 26 29 53 29 59 0 7 5 16 11 19
12 8 330 -45 344 -57 19 -17 -64 -158 -134 -228 -114 -113 -243 -159 -439
-160 -268 0 -459 106 -560 312 -57 116 -72 182 -79 338 -9 219 30 373 131 514
76 106 199 190 324 220 75 19 230 19 313 2z m2382 -18 c44 -21 57 -24 57 -12
0 12 31 14 188 14 l187 0 155 -465 c85 -255 158 -461 161 -457 4 4 74 213 155
464 l149 458 184 0 c170 0 183 -1 179 -17 -20 -73 -558 -1535 -588 -1599 -91
-190 -222 -265 -460 -264 -95 1 -184 11 -195 22 -5 5 -37 270 -33 274 2 1 38
-2 80 -7 147 -20 226 16 287 131 61 113 77 49 -194 768 -230 610 -244 645
-255 617 -7 -16 -27 -73 -45 -125 -19 -52 -38 -107 -44 -122 l-10 -28 -53 27
c-64 32 -154 36 -205 10 -113 -59 -143 -220 -143 -774 l0 -253 -175 0 -175 0
0 670 0 670 165 0 165 0 0 -86 0 -86 46 61 c85 114 144 143 274 138 66 -2 98
-9 143 -29z m5133 -155 c28 -10 43 -34 44 -67 0 -54 -43 -119 -150 -226 -167
-168 -277 -244 -715 -497 -170 -99 -440 -255 -600 -347 l-290 -167 -114 -265
c-63 -145 -119 -268 -125 -273 -6 -4 -57 -32 -114 -62 l-102 -54 -178 91 -177
91 -117 203 c-111 192 -117 205 -113 249 5 49 15 264 15 317 0 28 8 36 98 91
53 33 103 63 109 67 12 7 156 -7 418 -39 66 -8 133 -15 150 -15 22 0 197 96
630 346 523 301 692 394 820 450 228 98 425 140 511 107z m-3201 -1128 c135
-20 239 -86 329 -209 72 -98 337 -559 359 -625 40 -117 19 -308 -46 -437 -14
-28 -32 -56 -40 -63 -14 -11 -14 -6 -1 41 18 65 16 173 -3 212 -14 28 -15 28
-32 10 -22 -23 -54 -104 -82 -204 -20 -75 -75 -190 -90 -190 -4 0 -3 16 2 35
20 71 -13 74 -70 6 -45 -53 -129 -126 -137 -119 -2 3 14 32 36 64 44 66 106
232 91 247 -17 17 -50 -4 -87 -54 -33 -46 -163 -149 -187 -149 -5 0 2 15 16
34 40 52 114 216 128 282 21 104 -2 159 -74 171 -72 11 -140 -59 -221 -228
-25 -52 -51 -125 -59 -162 l-13 -68 -22 26 c-13 15 -33 25 -48 25 -31 0 -107
-43 -154 -87 -19 -18 -38 -33 -43 -33 -9 0 8 37 28 60 23 27 75 130 75 148 -1
45 -31 56 -97 36 -44 -13 -99 -62 -173 -152 -41 -50 -54 -54 -35 -9 34 83 22
130 -33 121 -35 -6 -61 -15 -180 -64 -30 -12 -56 -19 -58 -17 -3 2 15 22 38
44 120 111 147 165 88 178 -16 4 -38 4 -47 1 -10 -3 -34 -8 -53 -10 -30 -5
-32 -4 -16 7 48 32 86 78 86 105 0 15 -4 32 -9 37 -6 7 14 10 54 10 78 0 145
32 172 82 16 31 16 33 -2 53 -19 21 -118 54 -197 65 -47 6 -76 25 -41 25 74 2
195 33 213 55 10 12 9 20 -4 40 -16 24 -16 25 7 25 14 0 49 -5 78 -11 96 -18
278 -21 334 -4 66 20 125 60 125 85 0 55 -45 96 -155 141 -51 20 -77 24 -168
24 -107 0 -107 0 -82 18 54 40 11 85 -67 72 -53 -9 -47 1 18 30 37 17 79 26
129 28 74 4 108 18 99 40 -9 25 -51 41 -137 51 -48 6 -87 16 -86 21 0 6 22 17
48 25 25 8 57 21 69 28 48 27 122 26 192 -3 124 -51 165 -65 193 -65 25 0 27
3 21 28 -9 39 -49 77 -107 102 -31 14 -46 25 -38 29 12 8 98 6 166 -4z m-9515
-249 c0 -3 -13 -60 -30 -128 -64 -266 -85 -459 -77 -708 3 -96 8 -186 11 -200
3 -14 9 -45 12 -70 7 -56 58 -246 85 -320 61 -164 189 -386 281 -488 215 -237
378 -361 653 -497 368 -181 816 -290 1333 -325 157 -10 705 -15 749 -6 12 3
70 8 130 11 147 9 498 48 588 65 28 5 99 16 160 25 96 15 211 38 585 116 216
46 667 173 1020 289 290 95 796 284 1030 385 47 20 146 63 220 95 254 109 866
409 1045 513 139 81 297 156 341 163 90 13 184 -34 228 -115 47 -88 30 -208
-40 -273 -38 -35 -601 -325 -834 -430 -74 -33 -139 -64 -145 -68 -13 -10 -245
-113 -405 -180 -69 -29 -172 -72 -230 -97 -58 -25 -159 -65 -225 -88 -66 -24
-194 -71 -285 -105 -197 -73 -520 -181 -645 -216 -49 -14 -115 -34 -145 -44
-181 -63 -786 -210 -1105 -269 -345 -63 -628 -104 -848 -121 -67 -5 -147 -12
-177 -15 -181 -20 -843 -20 -1030 -1 -604 63 -939 144 -1341 323 -185 83 -359
184 -501 290 -124 94 -330 297 -420 414 -165 212 -301 517 -367 824 -71 333
-47 824 59 1207 l11 37 147 4 c81 1 150 4 155 5 4 1 7 0 7 -2z"/>
<path d="M3010 12224 l0 -237 263 6 c312 6 352 13 412 71 52 50 69 104 62 195
-4 48 -12 73 -33 104 -59 83 -124 96 -476 97 l-228 0 0 -236z"/>
<path d="M5010 11997 c-97 -27 -173 -98 -212 -196 -20 -49 -22 -74 -22 -201 0
-127 2 -152 22 -201 68 -170 250 -249 410 -180 76 34 146 114 171 196 40 130
37 294 -9 399 -27 63 -101 139 -159 165 -63 27 -144 34 -201 18z"/>
<path d="M8578 11519 c-87 -21 -176 -48 -198 -59 -108 -55 -109 -204 -3 -276
117 -79 324 2 372 145 16 48 15 231 -1 230 -7 -1 -84 -18 -170 -40z"/>
<path d="M3010 9354 l0 -237 263 6 c312 6 352 13 412 71 52 50 69 104 62 195
-4 48 -12 73 -33 104 -59 83 -124 96 -476 97 l-228 0 0 -236z"/>
<path d="M5010 9127 c-97 -27 -173 -98 -212 -196 -20 -49 -22 -74 -22 -201 0
-127 2 -152 22 -201 68 -170 250 -249 410 -180 76 34 146 114 171 196 40 130
37 294 -9 399 -27 63 -101 139 -159 165 -63 27 -144 34 -201 18z"/>
<path d="M9345 9149 c-108 -26 -195 -148 -195 -271 l0 -28 261 0 262 0 -7 53
c-8 56 -33 121 -65 165 -45 63 -169 103 -256 81z"/>
</g>
</svg>
