<?xml version="1.0" standalone="no"?>
<!DOCTYPE svg PUBLIC "-//W3C//DTD SVG 20010904//EN"
 "http://www.w3.org/TR/2001/REC-SVG-20010904/DTD/svg10.dtd">
<svg version="1.0" xmlns="http://www.w3.org/2000/svg"
 width="204.000000pt" height="192.000000pt" viewBox="0 0 204.000000 192.000000"
 preserveAspectRatio="xMidYMid meet">

<g transform="translate(0.000000,192.000000) scale(0.100000,-0.100000)"
fill="#000000" stroke="none">
<path d="M590 1784 c8 -3 22 -8 30 -10 13 -5 13 -6 0 -14 -8 -6 -26 -10 -40
-10 -43 0 -190 -78 -190 -101 0 -4 15 -10 33 -13 62 -12 132 -53 185 -109 28
-31 52 -62 52 -71 0 -9 -15 -17 -40 -21 -50 -8 -95 -45 -111 -90 -9 -24 -24
-39 -52 -51 -63 -29 -90 -53 -76 -70 9 -11 3 -27 -30 -77 -50 -78 -85 -162
-113 -275 -18 -72 -22 -116 -22 -252 0 -144 3 -175 23 -245 13 -44 32 -97 43
-118 l19 -39 72 74 c40 41 100 93 135 117 67 45 158 91 181 91 8 0 39 -24 70
-53 65 -62 166 -121 251 -147 l60 -18 0 27 c0 36 19 92 37 111 13 13 17 12 39
-15 42 -50 74 -122 74 -165 0 -38 2 -40 29 -40 70 0 235 46 320 89 97 50 174
153 184 246 2 22 18 63 35 90 72 117 95 265 68 423 -15 86 -15 97 0 140 18 51
23 140 10 187 -7 27 -9 28 -20 12 -12 -15 -15 -10 -25 41 -10 53 -68 189 -92
219 -7 8 -31 -10 -84 -67 -64 -69 -75 -86 -85 -134 l-11 -55 -62 50 c-107 86
-226 129 -359 129 l-67 0 -30 43 c-46 66 -90 103 -166 138 -63 30 -80 33 -180
36 -60 1 -103 0 -95 -3z m211 -94 c23 -12 58 -45 82 -77 23 -31 59 -75 80 -97
l39 -41 -28 50 c-43 77 -82 133 -106 150 -17 11 -18 15 -7 15 23 0 88 -50 135
-102 21 -25 64 -89 94 -143 30 -54 72 -116 93 -139 l37 -41 -36 70 c-20 39
-50 94 -65 122 -16 29 -29 55 -29 58 0 12 120 4 171 -11 120 -36 228 -107 337
-222 63 -66 63 -67 47 -27 -9 22 -25 49 -35 61 -41 43 -20 160 42 227 38 42
38 42 31 12 -16 -60 -7 -112 27 -165 41 -64 50 -131 26 -195 -18 -47 -57 -85
-85 -85 -12 0 -21 -15 -30 -47 -26 -99 -103 -155 -232 -168 -53 -6 -74 -3
-103 10 -63 30 -127 115 -221 293 -153 290 -233 398 -349 474 l-59 38 52 0
c32 0 67 -8 92 -20z m79 -380 c12 -8 12 -10 -5 -10 -71 -1 -181 -93 -215 -180
-22 -56 -46 -64 -58 -18 l-9 33 -8 -38 c-11 -58 0 -123 29 -167 14 -22 26 -46
26 -54 0 -8 13 -39 30 -71 l30 -56 -21 -62 c-20 -60 -22 -63 -77 -87 -31 -13
-73 -41 -93 -61 l-37 -37 9 30 c4 16 20 50 34 74 25 42 25 44 6 44 -48 0 -124
-24 -177 -56 -31 -19 -59 -32 -62 -30 -11 11 11 78 35 106 18 22 27 45 29 81
2 28 11 66 19 85 l14 34 -23 -17 c-20 -16 -38 -37 -81 -98 -12 -17 -12 -10 0
43 18 77 45 131 92 182 29 33 33 43 23 55 -7 8 -19 15 -26 15 -8 0 -14 5 -14
11 0 26 95 141 147 179 l57 40 31 -30 c17 -16 36 -30 41 -30 6 0 23 14 40 31
16 17 47 40 69 50 43 20 121 25 145 9z m115 -121 l27 -42 -28 8 c-45 12 -109
24 -112 20 -2 -1 11 -16 28 -33 26 -27 29 -34 20 -57 -14 -37 -12 -110 4 -149
18 -44 78 -91 135 -106 25 -7 50 -16 54 -20 11 -9 -48 -58 -79 -66 -32 -8 -31
-24 1 -24 46 0 89 26 154 94 l64 67 39 -15 c21 -9 50 -16 63 -16 29 0 31 -7
10 -37 -18 -26 -69 -44 -125 -45 -22 0 -40 -2 -40 -4 0 -2 13 -23 30 -45 33
-46 70 -137 70 -173 0 -32 -20 -46 -77 -53 -94 -11 -243 37 -304 98 l-38 38
-8 -25 -8 -25 -35 26 c-31 23 -80 88 -80 107 0 4 14 2 31 -4 31 -11 109 4 109
20 0 4 -16 16 -36 27 -58 31 -122 110 -140 172 -43 148 60 302 202 303 37 0
44 -4 69 -41z m801 -111 c22 -67 22 -195 0 -268 -16 -55 -96 -203 -116 -215
-5 -3 -10 -23 -10 -44 0 -73 -91 -171 -191 -206 -62 -22 -62 -20 -5 38 72 71
97 139 104 275 2 56 8 102 12 102 10 0 30 -47 30 -71 0 -11 5 -17 10 -14 6 3
10 27 10 52 0 36 5 49 24 64 33 26 49 80 44 146 -3 29 -1 56 4 59 4 3 13 14
18 25 10 18 9 19 -14 13 -34 -8 -33 0 4 39 17 18 33 40 36 50 8 26 21 12 40
-45z m-746 7 c10 -19 10 -27 1 -39 -19 -22 -16 -74 4 -96 20 -22 74 -27 92 -9
7 7 15 2 27 -16 16 -24 16 -27 0 -43 -39 -38 -119 -14 -168 52 -27 36 -28 110
-2 149 23 33 29 34 46 2z m87 -102 c4 -12 -35 -38 -44 -30 -2 3 2 15 9 26 13
22 29 23 35 4z m523 -61 c0 -34 -15 -72 -34 -84 -15 -10 -68 -10 -85 1 -22 14
-3 31 35 31 27 0 37 5 46 26 9 18 9 30 1 42 -7 12 -7 22 0 34 10 15 12 15 24
0 7 -9 13 -32 13 -50z m-60 -18 c0 -8 -4 -14 -9 -14 -11 0 -22 26 -14 34 9 9
23 -3 23 -20z m-74 -225 c-8 -119 -36 -205 -87 -263 -22 -25 -44 -46 -49 -46
-4 0 -10 27 -14 60 -12 103 -39 189 -94 292 -2 4 17 10 43 13 25 4 61 18 80
31 l35 23 7 -27 c9 -35 10 -176 1 -222 l-7 -35 17 35 c11 24 17 73 20 157 l4
122 25 -27 c24 -26 25 -31 19 -113z"/>
<path d="M431 1123 l-24 -16 44 -14 c24 -7 44 -13 45 -13 0 0 10 14 22 30 l23
30 -43 0 c-24 0 -54 -7 -67 -17z"/>
<path d="M471 927 c-16 -40 -30 -137 -19 -137 4 0 8 4 8 9 0 5 15 32 34 60 24
36 30 51 20 51 -8 0 -19 10 -23 23 -9 22 -9 22 -20 -6z"/>
</g>
</svg>
